<?xml version="1.0" encoding="utf-8"?>
<!-- Generator: Adobe Illustrator 25.0.0, SVG Export Plug-In . SVG Version: 6.00 Build 0)  -->
<svg version="1.1" xmlns="http://www.w3.org/2000/svg" xmlns:xlink="http://www.w3.org/1999/xlink" x="0px" y="0px"
	 viewBox="0 0 300 300" style="enable-background:new 0 0 300 300;" xml:space="preserve">
<style type="text/css">
	.st0{display:none;}
	.st1{display:none;fill:none;stroke:#000000;stroke-width:0.25;stroke-miterlimit:10;}
	.st2{display:inline;}
	.st3{fill:none;stroke:#000000;stroke-width:0.25;stroke-miterlimit:10;}
	.st4{fill:#7DDCE9;}
	.st5{fill:#51C3D3;}
	.st6{fill:#9ADFE9;}
	.st7{fill:none;}
	.st8{fill:#55959E;}
</style>
<g id="图层_1">
	<g class="st0">
	</g>
	<path class="st1" d="M40.5,200.74V92.26c0-2.63,2.13-4.76,4.76-4.76h20.49c2.63,0,4.76,2.13,4.76,4.76v108.49
		c0,2.63-2.13,4.76-4.76,4.76H45.26C42.63,205.5,40.5,203.37,40.5,200.74z"/>
	<path class="st1" d="M72.5,88.53v26.76c0,0.14,0.03,0.27,0.1,0.39l46.37,85.02c0.4,0.74,1.53,0.45,1.53-0.39v-31.59
		c0-0.14-0.04-0.28-0.11-0.41L74.02,88.12C73.6,87.4,72.5,87.7,72.5,88.53z"/>
	<path class="st1" d="M122.5,168.77v31.35c0,0.95,1.25,1.3,1.74,0.48l51.12-84.89c0.09-0.15,0.13-0.31,0.13-0.48V88.71
		c0-0.94-1.22-1.29-1.73-0.5l-51.12,80.06C122.55,168.42,122.5,168.6,122.5,168.77z"/>
	<path class="st1" d="M181.34,87.5h22.32c2.12,0,3.84,1.72,3.84,3.84v110.32c0,2.12-1.72,3.84-3.84,3.84h-66.38
		c-2.99,0-4.83-3.26-3.29-5.82l13.39-22.32c0.69-1.16,1.94-1.86,3.29-1.86h22.99c2.12,0,3.84-1.72,3.84-3.84V91.34
		C177.5,89.22,179.22,87.5,181.34,87.5z"/>
</g>
<g id="图层_2" class="st0">
	<g class="st2">
		<path d="M27.75,226.88V64.14c0-3.94,3.19-7.13,7.13-7.13h30.73c3.94,0,7.13,3.19,7.13,7.13v162.73c0,3.94-3.19,7.13-7.13,7.13
			H34.88C30.94,234.01,27.75,230.82,27.75,226.88z"/>
		<path d="M75.75,58.56V98.7c0,0.2,0.05,0.41,0.15,0.58l69.56,127.53c0.61,1.11,2.29,0.68,2.29-0.58v-47.39
			c0-0.21-0.06-0.43-0.16-0.61L78.03,57.95C77.4,56.87,75.75,57.31,75.75,58.56z"/>
		<path d="M150.75,178.92v47.03c0,1.43,1.88,1.95,2.61,0.73l76.69-127.33c0.13-0.22,0.2-0.47,0.2-0.73V58.83
			c0-1.41-1.83-1.94-2.59-0.76l-76.69,120.1C150.83,178.39,150.75,178.65,150.75,178.92z"/>
		<path d="M239.01,57.01h33.48c3.18,0,5.76,2.58,5.76,5.76v165.48c0,3.18-2.58,5.76-5.76,5.76h-99.56c-4.48,0-7.24-4.88-4.94-8.72
			l20.09-33.48c1.04-1.74,2.92-2.8,4.94-2.8h34.48c3.18,0,5.76-2.58,5.76-5.76V62.77C233.25,59.59,235.83,57.01,239.01,57.01z"/>
	</g>
	<g class="st2">
		<path class="st3" d="M27.75,226.88V64.14c0-3.94,3.19-7.13,7.13-7.13h30.73c3.94,0,7.13,3.19,7.13,7.13v162.73
			c0,3.94-3.19,7.13-7.13,7.13H34.88C30.94,234.01,27.75,230.82,27.75,226.88z"/>
		<path class="st3" d="M75.75,58.56V98.7c0,0.2,0.05,0.41,0.15,0.58l69.56,127.53c0.61,1.11,2.29,0.68,2.29-0.58v-47.39
			c0-0.21-0.06-0.43-0.16-0.61L78.03,57.95C77.4,56.87,75.75,57.31,75.75,58.56z"/>
		<path class="st3" d="M150.75,178.92v47.03c0,1.43,1.88,1.95,2.61,0.73l76.69-127.33c0.13-0.22,0.2-0.47,0.2-0.73V58.83
			c0-1.41-1.83-1.94-2.59-0.76l-76.69,120.1C150.83,178.39,150.75,178.65,150.75,178.92z"/>
		<path class="st3" d="M239.01,57.01h33.48c3.18,0,5.76,2.58,5.76,5.76v165.48c0,3.18-2.58,5.76-5.76,5.76h-99.56
			c-4.48,0-7.24-4.88-4.94-8.72l20.09-33.48c1.04-1.74,2.92-2.8,4.94-2.8h34.48c3.18,0,5.76-2.58,5.76-5.76V62.77
			C233.25,59.59,235.83,57.01,239.01,57.01z"/>
	</g>
</g>
<g id="图层_3">
	<path class="st4" d="M177.5,176.06l-58.9-58.9c-3.5-3.5-3.5-9.17,0-12.67l19.34-19.34c3.5-3.5,9.17-3.5,12.67,0l58.9,58.9
		c3.5,3.5,3.5,9.17,0,12.67l-19.34,19.34C186.67,179.55,180.99,179.55,177.5,176.06z"/>
	<path class="st5" d="M129.94,234.16l-10.52-10.52c-0.85-0.85-1.33-2.02-1.33-3.22l0.32-81c0.02-4.03,4.89-6.04,7.74-3.19
		l50.86,50.86c1.77,1.77,1.77,4.64,0,6.41l-40.66,40.66C134.59,235.93,131.72,235.93,129.94,234.16z"/>
	<path class="st6" d="M134.12,34h41.06c1.02,0,2,0.4,2.72,1.13l114.75,114.75c1.51,1.51,1.5,3.96-0.03,5.46L177.89,267.9
		c-0.72,0.7-1.68,1.1-2.69,1.1h-40.75c-9.08,0-13.59-11.02-7.11-17.39l98.13-96.28c1.53-1.5,1.54-3.95,0.03-5.46l-98.56-98.56
		C120.55,44.93,125.08,34,134.12,34z"/>
	<circle class="st5" cx="66.32" cy="82.96" r="24.1"/>
	<g>
		<circle class="st7" cx="66.7" cy="82.96" r="24.1"/>
		<circle class="st8" cx="66.7" cy="82.96" r="24.1"/>
	</g>
	<g>
		
			<ellipse transform="matrix(0.7071 -0.7071 0.7071 0.7071 -87.1684 106.4912)" class="st7" cx="84.96" cy="158.47" rx="8.18" ry="8.18"/>
		
			<ellipse transform="matrix(0.7071 -0.7071 0.7071 0.7071 -87.1684 106.4912)" class="st8" cx="84.96" cy="158.47" rx="8.18" ry="8.18"/>
	</g>
	<g>
		<circle class="st7" cx="45.8" cy="218.72" r="8.18"/>
		<g>
			<path class="st8" d="M64.74,51.38C78.42,50.56,90.36,58.44,95.56,70l0.01-0.21h14.82v-9.48C110.38,45.78,98.6,34,84.07,34H49.32
				c-14.53,0-26.31,11.78-26.31,26.31v155.07H35.6c1.53-4.68,6.19-7.94,11.51-7.31c4.87,0.58,8.8,4.55,9.35,9.42
				c0.72,6.48-4.33,11.97-10.66,11.97c-4.09,0-7.64-2.29-9.45-5.65H23.01v18.88c0,14.53,11.78,26.31,26.31,26.31h34.75
				c14.53,0,26.31-11.78,26.31-26.31v-79.14H94.42c-2.07,3.85-6.42,6.28-11.24,5.5c-4.66-0.75-8.34-4.65-8.87-9.34
				c-0.73-6.49,4.32-11.98,10.66-11.98c4.79,0,8.84,3.14,10.22,7.47l0.02-0.08h15.17V98.55H94.22
				c-5.44,9.58-15.72,16.04-27.52,16.04c-17.79,0-32.16-14.69-31.62-32.61C35.56,65.77,48.54,52.36,64.74,51.38z"/>
			<circle class="st8" cx="45.8" cy="218.72" r="8.18"/>
		</g>
	</g>
</g>
</svg>
