<?xml version="1.0" encoding="utf-8"?>
<!-- Generator: Adobe Illustrator 25.0.0, SVG Export Plug-In . SVG Version: 6.00 Build 0)  -->
<svg version="1.1" xmlns="http://www.w3.org/2000/svg" xmlns:xlink="http://www.w3.org/1999/xlink" x="0px" y="0px"
	 viewBox="0 0 300 300" style="enable-background:new 0 0 300 300;" xml:space="preserve">
<style type="text/css">
	.st0{display:none;}
	.st1{display:none;fill:none;stroke:#000000;stroke-width:0.25;stroke-miterlimit:10;}
	.st2{display:inline;}
	.st3{fill:none;stroke:#000000;stroke-width:0.25;stroke-miterlimit:10;}
	.st4{display:inline;fill:#FFFFFF;}
	.st5{display:none;fill:#FFFFFF;}
</style>
<g id="图层_1">
	<g class="st0">
	</g>
	<path class="st1" d="M40.5,200.74V92.26c0-2.63,2.13-4.76,4.76-4.76h20.49c2.63,0,4.76,2.13,4.76,4.76v108.49
		c0,2.63-2.13,4.76-4.76,4.76H45.26C42.63,205.5,40.5,203.37,40.5,200.74z"/>
	<path class="st1" d="M72.5,88.53v26.76c0,0.14,0.03,0.27,0.1,0.39l46.37,85.02c0.4,0.74,1.53,0.45,1.53-0.39v-31.59
		c0-0.14-0.04-0.28-0.11-0.41L74.02,88.12C73.6,87.4,72.5,87.7,72.5,88.53z"/>
	<path class="st1" d="M122.5,168.77v31.35c0,0.95,1.25,1.3,1.74,0.48l51.12-84.89c0.09-0.15,0.13-0.31,0.13-0.48V88.71
		c0-0.94-1.22-1.29-1.73-0.5l-51.12,80.06C122.55,168.42,122.5,168.6,122.5,168.77z"/>
	<path class="st1" d="M181.34,87.5h22.32c2.12,0,3.84,1.72,3.84,3.84v110.32c0,2.12-1.72,3.84-3.84,3.84h-66.38
		c-2.99,0-4.83-3.26-3.29-5.82l13.39-22.32c0.69-1.16,1.94-1.86,3.29-1.86h22.99c2.12,0,3.84-1.72,3.84-3.84V91.34
		C177.5,89.22,179.22,87.5,181.34,87.5z"/>
</g>
<g id="图层_2" class="st0">
	<g class="st2">
		<path d="M27.75,226.88V64.14c0-3.94,3.19-7.13,7.13-7.13h30.73c3.94,0,7.13,3.19,7.13,7.13v162.73c0,3.94-3.19,7.13-7.13,7.13
			H34.88C30.94,234.01,27.75,230.82,27.75,226.88z"/>
		<path d="M75.75,58.56V98.7c0,0.2,0.05,0.41,0.15,0.58l69.56,127.53c0.61,1.11,2.29,0.68,2.29-0.58v-47.39
			c0-0.21-0.06-0.43-0.16-0.61L78.03,57.95C77.4,56.87,75.75,57.31,75.75,58.56z"/>
		<path d="M150.75,178.92v47.03c0,1.43,1.88,1.95,2.61,0.73l76.69-127.33c0.13-0.22,0.2-0.47,0.2-0.73V58.83
			c0-1.41-1.83-1.94-2.59-0.76l-76.69,120.1C150.83,178.39,150.75,178.65,150.75,178.92z"/>
		<path d="M239.01,57.01h33.48c3.18,0,5.76,2.58,5.76,5.76v165.48c0,3.18-2.58,5.76-5.76,5.76h-99.56c-4.48,0-7.24-4.88-4.94-8.72
			l20.09-33.48c1.04-1.74,2.92-2.8,4.94-2.8h34.48c3.18,0,5.76-2.58,5.76-5.76V62.77C233.25,59.59,235.83,57.01,239.01,57.01z"/>
	</g>
	<g class="st2">
		<path class="st3" d="M27.75,226.88V64.14c0-3.94,3.19-7.13,7.13-7.13h30.73c3.94,0,7.13,3.19,7.13,7.13v162.73
			c0,3.94-3.19,7.13-7.13,7.13H34.88C30.94,234.01,27.75,230.82,27.75,226.88z"/>
		<path class="st3" d="M75.75,58.56V98.7c0,0.2,0.05,0.41,0.15,0.58l69.56,127.53c0.61,1.11,2.29,0.68,2.29-0.58v-47.39
			c0-0.21-0.06-0.43-0.16-0.61L78.03,57.95C77.4,56.87,75.75,57.31,75.75,58.56z"/>
		<path class="st3" d="M150.75,178.92v47.03c0,1.43,1.88,1.95,2.61,0.73l76.69-127.33c0.13-0.22,0.2-0.47,0.2-0.73V58.83
			c0-1.41-1.83-1.94-2.59-0.76l-76.69,120.1C150.83,178.39,150.75,178.65,150.75,178.92z"/>
		<path class="st3" d="M239.01,57.01h33.48c3.18,0,5.76,2.58,5.76,5.76v165.48c0,3.18-2.58,5.76-5.76,5.76h-99.56
			c-4.48,0-7.24-4.88-4.94-8.72l20.09-33.48c1.04-1.74,2.92-2.8,4.94-2.8h34.48c3.18,0,5.76-2.58,5.76-5.76V62.77
			C233.25,59.59,235.83,57.01,239.01,57.01z"/>
	</g>
</g>
<g id="图层_3">
	<path d="M69.66,277.81H37.71c-17.03,0-30.84-13.81-30.84-30.84V56.84C6.88,39.81,20.68,26,37.71,26h31.95
		c17.03,0,30.84,13.81,30.84,30.84v190.13C100.5,264,86.69,277.81,69.66,277.81z"/>
	<path d="M177.14,182.95l-72.57-72.57c-1.14-1.13-1.14-2.98,0-4.11l30.18-30.18c1.13-1.13,2.98-1.13,4.11,0l72.57,72.57
		c1.13,1.14,1.13,2.98,0,4.11l-30.18,30.18C180.12,184.08,178.28,184.08,177.14,182.95z"/>
	<path d="M122.2,241.22l-12.32-12.32c-0.72-0.72-1.12-1.69-1.12-2.71l0.35-89.74c0.01-3.39,4.11-5.08,6.51-2.68l57.01,57.01
		c1.49,1.49,1.49,3.9,0,5.39l-45.05,45.05C126.1,242.7,123.69,242.7,122.2,241.22z"/>
	<path d="M125.93,26h44c1.09,0,2.14,0.43,2.91,1.21l122.96,122.96c1.62,1.62,1.61,4.25-0.03,5.85L172.83,276.63
		c-0.77,0.76-1.81,1.18-2.88,1.18h-43.66c-9.73,0-14.56-11.81-7.61-18.63l105.15-103.16c1.63-1.6,1.65-4.23,0.03-5.85L118.24,44.56
		C111.39,37.71,116.24,26,125.93,26z"/>
	<g class="st0">
		<path class="st4" d="M138.38,105.75c-5.8,0-10.5,4.7-10.5,10.5c0,5.8,4.7,10.5,10.5,10.5s10.5-4.7,10.5-10.5
			C148.88,110.45,144.17,105.75,138.38,105.75z M138.38,124.25c-4.42,0-8-3.58-8-8s3.58-8,8-8s8,3.58,8,8
			S142.79,124.25,138.38,124.25z"/>
		<path class="st4" d="M144.44,137.75c-1.97,0-3.56,1.59-3.56,3.56c0,1.97,1.59,3.56,3.56,3.56s3.56-1.6,3.56-3.56
			C148,139.34,146.41,137.75,144.44,137.75z M144.44,144.03c-1.5,0-2.71-1.22-2.71-2.71s1.22-2.71,2.71-2.71s2.71,1.22,2.71,2.71
			S145.94,144.03,144.44,144.03z"/>
		<path class="st4" d="M131.44,157.75c-1.97,0-3.56,1.59-3.56,3.56c0,1.97,1.59,3.56,3.56,3.56s3.56-1.6,3.56-3.56
			C135,159.34,133.41,157.75,131.44,157.75z M131.44,164.03c-1.5,0-2.71-1.22-2.71-2.71s1.22-2.71,2.71-2.71s2.71,1.22,2.71,2.71
			S132.94,164.03,131.44,164.03z"/>
		<circle class="st2" cx="138.25" cy="116.25" r="8"/>
	</g>
	<polyline class="st5" points="147.92,111.88 152.88,111.88 152.88,121.43 147.5,121.43 	"/>
	<polygon class="st5" points="147.84,140.2 153,140.2 153,143 147,143 	"/>
	<polygon class="st5" points="122.81,163 128.64,163 128.27,160.2 122.81,160.2 	"/>
</g>
</svg>
