<svg xmlns="http://www.w3.org/2000/svg" viewBox="0 0 89.87 78"><title>mvp_logo_v1.2</title><g id="图层_3" data-name="图层 3"><rect width="29" height="78" rx="7.06"/><rect x="153.89" y="124.55" width="33.59" height="15.02" rx="2.91" transform="translate(19.5 -182.01) rotate(45)"/><path d="M159.6,166.67l-3.82-3.82a1.21,1.21,0,0,1-.35-.84l.11-27.8a1.18,1.18,0,0,1,2-.83L175.22,151a1.18,1.18,0,0,1,0,1.67l-13.95,14A1.18,1.18,0,0,1,159.6,166.67Z" transform="translate(-123.88 -100)"/><path d="M160.75,100h13.63a1.26,1.26,0,0,1,.9.37l38.09,38.09a1.27,1.27,0,0,1,0,1.81l-38.08,37.36a1.26,1.26,0,0,1-.89.37H160.86a3.36,3.36,0,0,1-2.35-5.77l32.57-32a1.27,1.27,0,0,0,0-1.81l-32.71-32.71A3.37,3.37,0,0,1,160.75,100Z" transform="translate(-123.88 -100)"/></g></svg>